<svg width="46" height="51" viewBox="0 0 46 51" fill="none" xmlns="http://www.w3.org/2000/svg">
<path d="M41.4291 10.5537L39.1971 9.24164V34.7017C39.1971 34.9587 39.1302 35.2111 39.0033 35.4338C38.8764 35.6566 38.6938 35.8418 38.4739 35.971L23.2911 44.8133C23.07 44.9409 22.8197 45.008 22.5651 45.008C22.3104 45.008 22.0601 44.9409 21.839 44.8133L6.65623 35.971C6.43553 35.8424 6.25224 35.6573 6.12479 35.4345C5.99734 35.2117 5.93021 34.959 5.93015 34.7017V17.0171C5.93029 16.7595 5.99743 16.5064 6.12485 16.2831C6.25226 16.0599 6.4355 15.8743 6.65623 15.745L21.839 6.90271C22.0596 6.77375 22.3101 6.70585 22.5651 6.70585C22.82 6.70585 23.0705 6.77375 23.2911 6.90271L26.8594 8.98207V2.05087L26.2548 1.71144C25.1322 1.05976 23.86 0.716797 22.5651 0.716797C21.2701 0.716797 19.9979 1.05976 18.8753 1.71144L3.69257 10.5537C2.57156 11.2095 1.64058 12.1507 0.992621 13.2834C0.344659 14.4161 0.00238793 15.7006 0 17.0086V34.7074C0.00238793 36.0154 0.344659 37.2999 0.992621 38.4326C1.64058 39.5653 2.57156 40.5065 3.69257 41.1623L18.8753 50.0046C19.9979 50.6562 21.2701 50.9992 22.5651 50.9992C23.86 50.9992 25.1322 50.6562 26.2548 50.0046L41.4375 41.1623C42.5582 40.5064 43.4888 39.565 44.1363 38.4323C44.7837 37.2996 45.1255 36.0152 45.1273 34.7074V17.0228C45.1271 15.7118 44.7852 14.4239 44.1361 13.2884C43.487 12.1529 42.5534 11.2097 41.4291 10.5537Z" fill="white"/>
<path d="M36.0385 2.80479e-05H30.018C29.8476 -0.00109924 29.6786 0.0317646 29.5208 0.0967328C29.3631 0.161701 29.2195 0.257494 29.0985 0.378612C28.9775 0.499731 28.8814 0.643789 28.8157 0.802516C28.7499 0.961243 28.7159 1.13151 28.7155 1.30355V37.1091C28.7142 37.3388 28.7728 37.5648 28.8855 37.7643C28.9983 37.9639 29.1611 38.1299 29.3577 38.2456C29.5542 38.3613 29.7775 38.4226 30.0051 38.4234C30.2326 38.4242 30.4563 38.3644 30.6536 38.25L36.6742 34.7388C36.8722 34.6234 37.0362 34.4569 37.1494 34.2564C37.2626 34.0559 37.3209 33.8286 37.3183 33.5978V1.3064C37.3198 0.961935 37.1859 0.630931 36.946 0.386019C36.7061 0.141107 36.3797 0.00229097 36.0385 2.80479e-05Z" fill="#4D8C57"/>
<path d="M26.7125 39.3625V12.1939C26.7133 12.0225 26.6805 11.8526 26.6161 11.6939C26.5517 11.5353 26.457 11.3911 26.3373 11.2695C26.2177 11.1479 26.0754 11.0513 25.9187 10.9852C25.7621 10.9192 25.594 10.885 25.4242 10.8846H19.3924C19.0497 10.8846 18.721 11.0219 18.4784 11.2663C18.2358 11.5106 18.0992 11.8422 18.0984 12.1882V39.1714C18.097 39.4023 18.1561 39.6294 18.2698 39.8298C18.3834 40.0302 18.5475 40.1966 18.7454 40.3123L21.9096 42.1578C22.1067 42.2714 22.3297 42.3311 22.5566 42.3311C22.7835 42.3311 23.0065 42.2714 23.2036 42.1578L26.0571 40.4949C26.2555 40.3812 26.4206 40.2166 26.5357 40.0177C26.6509 39.8189 26.7118 39.5928 26.7125 39.3625Z" fill="#F29F05"/>
<path d="M15.0669 16.7062H9.04635C8.70366 16.7069 8.37527 16.8449 8.13321 17.0898C7.89116 17.3347 7.75522 17.6666 7.75522 18.0126V33.5778C7.75355 33.8084 7.81225 34.0354 7.92536 34.2357C8.03847 34.4361 8.20199 34.6027 8.39937 34.7188L14.4199 38.2214C14.6173 38.3365 14.8413 38.3969 15.0693 38.3965C15.2972 38.3961 15.521 38.3349 15.718 38.2191C15.915 38.1033 16.0782 37.937 16.1911 37.7371C16.304 37.5371 16.3625 37.3106 16.3608 37.0805V18.0126C16.3608 17.6661 16.2245 17.3338 15.9819 17.0888C15.7392 16.8438 15.4101 16.7062 15.0669 16.7062Z" fill="#8C1127"/>
</svg>
